<mxfile host="app.diagrams.net" modified="2024-04-14T20:20:56.469Z" agent="Mozilla/5.0 (Windows NT 10.0; Win64; x64) AppleWebKit/537.36 (KHTML, like Gecko) Chrome/123.0.0.0 Safari/537.36" version="24.2.5" etag="jJhNqhIx-bPEL-TUKDZ2" type="github">
  <diagram name="PÃ¡gina-1" id="BPShiuyZXOePj8eJlg69">
    <mxGraphModel>
      <root>
        <mxCell id="0" />
        <mxCell id="1" parent="0" />
      </root>
    </mxGraphModel>
  </diagram>
</mxfile>
